<svg width="29" height="37" xmlns="http://www.w3.org/2000/svg"><g fill="none" fill-rule="evenodd"><path d="M7 25.824A13.99 13.99 0 0 1 .5 14c0-7.732 6.268-14 14-14s14 6.268 14 14c0 4.535-2.156 8.567-5.5 11.125V36.23c0 .04-.005.079-.014.118-.105.42-.734.708-1.407.643a1.46 1.46 0 0 1-.679-.245L15 33.071l-5.901 3.675a1.46 1.46 0 0 1-.679.245c-.672.065-1.301-.223-1.406-.643A.515.515 0 0 1 7 36.23V25.824z" fill="#0E3EC1"/><path d="M14.55 25c-6.075 0-11-4.925-11-11s4.925-11 11-11 11 4.925 11 11-4.925 11-11 11zm.412-17.757a.45.45 0 0 0-.8 0l-1.833 3.561a.444.444 0 0 1-.337.235l-4.059.558a.45.45 0 0 0-.26.128.416.416 0 0 0 .014.604l2.949 2.769c.105.098.153.24.127.38l-.696 3.91a.412.412 0 0 0 .046.278.452.452 0 0 0 .6.174l3.643-1.843a.46.46 0 0 1 .415 0l3.615 1.838a.46.46 0 0 0 .29.044.43.43 0 0 0 .357-.497l-.696-3.91a.42.42 0 0 1 .127-.38l2.95-2.768a.422.422 0 0 0 .132-.25.43.43 0 0 0-.379-.482l-4.06-.558a.444.444 0 0 1-.336-.235l-1.81-3.556z" fill="#D2E3FC"/></g></svg>